<svg width="512" height="512" viewBox="0 0 512 512" fill="none" xmlns="http://www.w3.org/2000/svg">
  <defs>
    <!-- Main gradient background -->
    <linearGradient id="bgGradient" x1="0%" y1="0%" x2="100%" y2="100%">
      <stop offset="0%" style="stop-color:#667eea;stop-opacity:1" />
      <stop offset="50%" style="stop-color:#764ba2;stop-opacity:1" />
      <stop offset="100%" style="stop-color:#f093fb;stop-opacity:1" />
    </linearGradient>
    
    <!-- Prism gradient -->
    <linearGradient id="prismGradient" x1="0%" y1="0%" x2="100%" y2="100%">
      <stop offset="0%" style="stop-color:#60a5fa;stop-opacity:1" />
      <stop offset="50%" style="stop-color:#a78bfa;stop-opacity:1" />
      <stop offset="100%" style="stop-color:#f472b6;stop-opacity:1" />
    </linearGradient>
    
    <!-- Light beam gradients -->
    <linearGradient id="beam1" x1="0%" y1="0%" x2="100%" y2="100%">
      <stop offset="0%" style="stop-color:#60a5fa;stop-opacity:0.9" />
      <stop offset="100%" style="stop-color:#60a5fa;stop-opacity:0.3" />
    </linearGradient>
    
    <linearGradient id="beam2" x1="0%" y1="0%" x2="100%" y2="100%">
      <stop offset="0%" style="stop-color:#a78bfa;stop-opacity:0.9" />
      <stop offset="100%" style="stop-color:#a78bfa;stop-opacity:0.3" />
    </linearGradient>
    
    <linearGradient id="beam3" x1="0%" y1="0%" x2="100%" y2="100%">
      <stop offset="0%" style="stop-color:#f472b6;stop-opacity:0.9" />
      <stop offset="100%" style="stop-color:#f472b6;stop-opacity:0.3" />
    </linearGradient>
    
    <!-- Glow effect -->
    <filter id="glow">
      <feGaussianBlur stdDeviation="4" result="coloredBlur"/>
      <feMerge>
        <feMergeNode in="coloredBlur"/>
        <feMergeNode in="SourceGraphic"/>
      </feMerge>
    </filter>
  </defs>
  
  <!-- Background -->
  <rect width="512" height="512" rx="100" fill="url(#bgGradient)"/>
  
  <!-- Glow circles for depth -->
  <circle cx="256" cy="256" r="200" fill="#ffffff" opacity="0.1"/>
  <circle cx="256" cy="256" r="150" fill="#ffffff" opacity="0.1"/>
  
  <!-- Main prism shape - 3D effect -->
  <g filter="url(#glow)">
    <!-- Shadow layer -->
    <path d="M 256 140 L 380 340 L 132 340 Z" fill="#000000" opacity="0.2" transform="translate(8, 8)"/>
    
    <!-- Main prism body -->
    <path d="M 256 140 L 380 340 L 132 340 Z" fill="url(#prismGradient)" stroke="#ffffff" stroke-width="6" stroke-linejoin="round"/>
    
    <!-- Inner highlight for 3D effect -->
    <path d="M 256 140 L 280 340 L 232 340 Z" fill="#ffffff" opacity="0.3"/>
  </g>
  
  <!-- Light input beam (white light entering) -->
  <g opacity="0.8">
    <line x1="256" y1="50" x2="256" y2="140" stroke="#ffffff" stroke-width="12" stroke-linecap="round"/>
    <circle cx="256" cy="50" r="8" fill="#ffffff"/>
  </g>
  
  <!-- Refracted light beams (spectrum output) -->
  <g opacity="0.9">
    <!-- Blue beam -->
    <path d="M 370 340 L 440 420" stroke="url(#beam1)" stroke-width="14" stroke-linecap="round"/>
    <circle cx="440" cy="420" r="8" fill="#60a5fa"/>
    
    <!-- Purple beam -->
    <path d="M 350 340 L 410 440" stroke="url(#beam2)" stroke-width="14" stroke-linecap="round"/>
    <circle cx="410" cy="440" r="8" fill="#a78bfa"/>
    
    <!-- Pink beam -->
    <path d="M 330 340 L 370 460" stroke="url(#beam3)" stroke-width="14" stroke-linecap="round"/>
    <circle cx="370" cy="460" r="8" fill="#f472b6"/>
  </g>
  
  <!-- AI/Data symbol inside prism -->
  <g transform="translate(256, 240)">
    <!-- Brain/neural network icon -->
    <circle cx="-20" cy="-10" r="8" fill="#ffffff" opacity="0.9"/>
    <circle cx="20" cy="-10" r="8" fill="#ffffff" opacity="0.9"/>
    <circle cx="0" cy="10" r="8" fill="#ffffff" opacity="0.9"/>
    <circle cx="-15" cy="25" r="6" fill="#ffffff" opacity="0.9"/>
    <circle cx="15" cy="25" r="6" fill="#ffffff" opacity="0.9"/>
    
    <!-- Connection lines -->
    <line x1="-20" y1="-10" x2="0" y2="10" stroke="#ffffff" stroke-width="2" opacity="0.7"/>
    <line x1="20" y1="-10" x2="0" y2="10" stroke="#ffffff" stroke-width="2" opacity="0.7"/>
    <line x1="0" y1="10" x2="-15" y2="25" stroke="#ffffff" stroke-width="2" opacity="0.7"/>
    <line x1="0" y1="10" x2="15" y2="25" stroke="#ffffff" stroke-width="2" opacity="0.7"/>
  </g>
  
  <!-- Sparkle effects -->
  <g fill="#ffffff" opacity="0.8">
    <circle cx="180" cy="120" r="4"/>
    <circle cx="330" cy="130" r="3"/>
    <circle cx="140" cy="280" r="3"/>
    <circle cx="390" cy="300" r="4"/>
  </g>
</svg>
